<?xml version="1.0" encoding="UTF-8" standalone="no"?>
<svg enable-background="new 0 0 411.244 410.013" viewBox="0 0 411.244 410.013" xmlns="http://www.w3.org/2000/svg">
<path d="m10.141,257.992-1.444,2.881c-6.188-26.283-14.051-54.486-3.584-85.828 12.342-36.954 39.027-58.056 68.145-81.292 52.758-42.102 157.36-24.69 208.391,11.475-12.109-15.802 1.387-36.769-7.221-48.999h2.889c-3.598-8.628-7.793-44.061-1.443-51.881 9.42-11.6 20.74,10.608 27.439,17.293 4.457,4.446 10.457,11.985 15.885,14.411 6.137,2.742 13.703.433 20.648,1.817 7.738,1.542 15.441,4.644 22.678,2.508 8.078-2.383 16.627-11.896 24.553-15.853 8.215-4.101 28.102-23.496 23.48-.427-3.809,19.025-12.955,33.068-19.148,50.866-1.881,5.401-.725,11.698-2.887,17.296-3.207,8.3-10.301,14.584-13,23.059-4.041,12.683 3.236,29.55 7.221,41.792-.809-1.985-2.076-3.782-2.889-5.765 .094,5.069.547,9.554 1.445,14.413l-1.445-2.883c1.225,3.23 1.74,6.798 2.889,10.088-.939-.981-1.928-1.92-2.889-2.881 .682,3.778.523,7.807 1.445,11.529l-1.445-2.883c1.072,8.254-6.34,28.786-12.996,28.823-8.445,9.111 2.889,22.199 2.889,33.146 0,10.461-.361,19.191 4.332,28.824 7.549,15.496 26.971,26.91 18.053,44.676-7.406,14.752-32.375.217-36.828-10.088-4.326-10.018-5.877-19.301-11.555-28.824-4.775-8.012-14.961-16.373-15.883-25.941-4.588,2.469-9.336,4.199-14.443,4.324l1.443-1.441c-7.412,2.27-15.354,1.441-23.105,1.441 12.23,13.467-7.246,14.432-14.443,17.295 11.123,13.564 22.42,28.197 33.217,40.35 4.691,5.283 7.637,12.41 12.996,17.297 5.469,4.986 12.928,6.824 17.332,12.969 6.58,9.182 3.879,17.729-3.609,25.221-2.131,2.133-10.631.723-13.721.723-3.443,0-5.578-1.912-8.666-2.885-.408-.129-6.412-.904-7.219-1.441-16.309-10.857-23.324-32.895-36.105-44.676-4.502-4.148-10.879-7.172-15.887-11.529-6.738-5.863-12.338-15.416-19.498-20.176-7.463-4.963-14.754-15.092-22.385-18.734-6.576-3.141-20.082-3.455-27.44-4.324l1.445,2.883c-3.913-2.133-7.585-2.736-11.554-4.322l1.444,2.879c-14.43-11.76-46.904-9.967-60.656,1.443-18.956,15.729 6.898,21.744 16.607,35.309 7.486,10.459 17.688,20.029 27.735,28.049 9.188,7.334 20.605,11.086 29.312,18.789 8.646,7.648 13.239,25.781 23.106,25.939 6.898.111 22.475-11.799 30.33-14.41l-1.445,2.881c3.047-1.295 5.059-1.066 8.666-1.441l-1.445,1.441c7.871-.475 6.854,7.154 4.332,12.971l1.445-1.441c2.049,17.211-29.061,26.557-42.309,29.197-27.875,5.557-57.112,8.525-84.782-1.813-59.117-22.094-99.539-87.583-118.423-144.12m80.875,72.057c16.052,10.254 35.065,13.5 51.563,23.379 12.796,7.664 15.6,15.914 26.423,25.623-31.542-8.186-58.53-20.178-77.986-49.002" fill="#404040" fill-rule="evenodd" stroke="#000" stroke-miterlimit="9.82128" stroke-width=".405"/>
<path d="m10.141,257.992-1.444,2.881c-6.188-26.283-14.051-54.486-3.584-85.828 12.342-36.954 39.027-58.056 68.145-81.292 52.758-42.102 157.36-24.69 208.391,11.475-12.109-15.802 1.387-36.769-7.221-48.999h2.889c-3.598-8.628-7.793-44.061-1.443-51.881 9.42-11.6 20.74,10.608 27.439,17.293 4.457,4.446 10.457,11.985 15.885,14.411 6.137,2.742 13.703.433 20.648,1.817 7.738,1.542 15.441,4.644 22.678,2.508 8.078-2.383 16.627-11.896 24.553-15.853 8.215-4.101 28.102-23.496 23.48-.427-3.809,19.025-12.955,33.068-19.148,50.866-1.881,5.401-.725,11.698-2.887,17.296-3.207,8.3-10.301,14.584-13,23.059-4.041,12.683 3.236,29.55 7.221,41.792-.809-1.985-2.076-3.782-2.889-5.765 .094,5.069.547,9.554 1.445,14.413l-1.445-2.883c1.225,3.23 1.74,6.798 2.889,10.088-.939-.981-1.928-1.92-2.889-2.881 .682,3.778.523,7.807 1.445,11.529l-1.445-2.883c1.072,8.254-6.34,28.786-12.996,28.823-8.445,9.111 2.889,22.199 2.889,33.146 0,10.461-.361,19.191 4.332,28.824 7.549,15.496 26.971,26.91 18.053,44.676-7.406,14.752-32.375.217-36.828-10.088-4.326-10.018-5.877-19.301-11.555-28.824-4.775-8.012-14.961-16.373-15.883-25.941-4.588,2.469-9.336,4.199-14.443,4.324l1.443-1.441c-7.412,2.27-15.354,1.441-23.105,1.441 12.23,13.467-7.246,14.432-14.443,17.295 11.123,13.564 22.42,28.197 33.217,40.35 4.691,5.283 7.637,12.41 12.996,17.297 5.469,4.986 12.928,6.824 17.332,12.969 6.58,9.182 3.879,17.729-3.609,25.221-2.131,2.133-10.631.723-13.721.723-3.443,0-5.578-1.912-8.666-2.885-.408-.129-6.412-.904-7.219-1.441-16.309-10.857-23.324-32.895-36.105-44.676-4.502-4.148-10.879-7.172-15.887-11.529-6.738-5.863-12.338-15.416-19.498-20.176-7.463-4.963-14.754-15.092-22.385-18.734-6.576-3.141-20.082-3.455-27.44-4.324l1.445,2.883c-3.913-2.133-7.585-2.736-11.554-4.322l1.444,2.879c-14.43-11.76-46.904-9.967-60.656,1.443-18.956,15.729 6.898,21.744 16.607,35.309 7.486,10.459 17.688,20.029 27.735,28.049 9.188,7.334 20.605,11.086 29.312,18.789 8.646,7.648 13.239,25.781 23.106,25.939 6.898.111 22.475-11.799 30.33-14.41l-1.445,2.881c3.047-1.295 5.059-1.066 8.666-1.441l-1.445,1.441c7.871-.475 6.854,7.154 4.332,12.971l1.445-1.441c2.049,17.211-29.061,26.557-42.309,29.197-27.875,5.557-57.112,8.525-84.782-1.813-59.117-22.094-99.539-87.583-118.423-144.12" fill="none" stroke="#000" stroke-linecap="square" stroke-miterlimit="9.82128" stroke-width=".405"/>
<path d="m91.016,330.049c16.052,10.254 35.065,13.5 51.563,23.379 12.796,7.664 15.6,15.914 26.423,25.623-31.542-8.186-58.53-20.178-77.986-49.002" fill="none" stroke="#000" stroke-linecap="square" stroke-miterlimit="9.82128" stroke-width=".405"/>
<path d="m169.001,379.051c10.577,5.416 29.337-.01 40.438-2.885" fill="none" stroke="#000" stroke-linecap="square" stroke-miterlimit="9.82128" stroke-width=".405"/>
<path d="m189.22,355.992c3.357,1.346 5.867,3.85 7.222,7.203" fill="none" stroke="#000" stroke-linecap="square" stroke-miterlimit="9.82128" stroke-width=".405"/>
<path d="m177.667,351.668c3.506,1.109 6.974,3.115 10.109,5.764" fill="none" stroke="#000" stroke-linecap="square" stroke-miterlimit="9.82128" stroke-width=".405"/>
<path d="m187.776,404.988c-4.033-.439-8.045-1.959-11.554-4.322" fill="none" stroke="#000" stroke-linecap="square" stroke-miterlimit="9.82128" stroke-width=".405"/>
<path d="m179.112,404.988c-3.549-1.537-5.919-3.143-8.668-5.764" fill="none" stroke="#000" stroke-linecap="square" stroke-miterlimit="9.82128" stroke-width=".405"/>
<path d="m140.118,400.666c-3.129-1.865-5.387-4.145-7.222-7.205" fill="none" stroke="#000" stroke-linecap="square" stroke-miterlimit="9.82128" stroke-width=".405"/>
<path d="m131.453,396.342c-3.282-2.74-5.685-6.1-7.222-10.088" fill="none" stroke="#000" stroke-linecap="square" stroke-miterlimit="9.82128" stroke-width=".405"/>
<path d="m128.563,338.695c-3.355-1.348-5.865-3.852-7.221-7.205" fill="none" stroke="#000" stroke-linecap="square" stroke-miterlimit="9.82128" stroke-width=".405"/>
<path d="m121.343,335.814c-2.572-2.365-4.127-5.402-4.332-8.648" fill="none" stroke="#000" stroke-linecap="square" stroke-miterlimit="9.82128" stroke-width=".405"/>
<path d="m135.786,324.285c-.635-3.248-2.132-6.268-4.333-8.648" fill="none" stroke="#000" stroke-linecap="square" stroke-miterlimit="9.82128" stroke-width=".405"/>
<path d="m132.896,321.402c-3.109-3.965-6.138-6.986-10.108-10.09" fill="none" stroke="#000" stroke-linecap="square" stroke-miterlimit="9.82128" stroke-width=".405"/>
<path d="m128.563,321.402c-7.581-8.572-20.945-10.52-24.551-21.619" fill="none" stroke="#000" stroke-linecap="square" stroke-miterlimit="9.82128" stroke-width=".405"/>
<path d="m105.456,322.844c-4.647-1.688-7.602-6.42-8.664-11.531" fill="none" stroke="#000" stroke-linecap="square" stroke-miterlimit="9.82128" stroke-width=".405"/>
<path d="m92.459,318.52c-4.019-4.518-4.489-9.77-5.776-15.852" fill="none" stroke="#000" stroke-linecap="square" stroke-miterlimit="9.82128" stroke-width=".405"/>
<path d="m80.905,291.139c-2.021,6.873.662,13.24 2.889,20.174" fill="none" stroke="#000" stroke-linecap="square" stroke-miterlimit="9.82128" stroke-width=".405"/>
<path d="m89.57,370.402c-3.948-3.781-6.11-9.033-7.22-14.41" fill="none" stroke="#000" stroke-linecap="square" stroke-miterlimit="9.82128" stroke-width=".405"/>
<path d="m72.24,354.549c-4.087-3.693-5.343-9.059-5.776-14.41" fill="none" stroke="#000" stroke-linecap="square" stroke-miterlimit="9.82128" stroke-width=".405"/>
<path d="m63.575,344.461c-.699-5.301-1.61-10.406-1.443-15.852" fill="none" stroke="#000" stroke-linecap="square" stroke-miterlimit="9.82128" stroke-width=".405"/>
<path d="m43.356,312.758c-1.9-7.588-4.631-15.186-4.332-23.061" fill="none" stroke="#000" stroke-linecap="square" stroke-miterlimit="9.82128" stroke-width=".405"/>
<path d="m34.692,302.668c-.539-4.844-.17-9.871 1.443-14.414" fill="none" stroke="#000" stroke-linecap="square" stroke-miterlimit="9.82128" stroke-width=".405"/>
<path d="m91.016,330.049-2.89-4.322-1.443,2.883c-10.926-18.174-23.857-42.352-28.883-57.646-1.729-9.48-2.889-17.711-2.889-27.383" fill="none" stroke="#000" stroke-linecap="square" stroke-miterlimit="9.82128" stroke-width=".405"/>
<path d="m49.133,260.873c-3.92-2.787-5.94-6.77-5.776-11.529" fill="none" stroke="#000" stroke-linecap="square" stroke-miterlimit="9.82128" stroke-width=".405"/>
<path d="m43.356,260.873c-4.034-5.34-5.721-12.188-7.221-18.734" fill="none" stroke="#000" stroke-linecap="square" stroke-miterlimit="9.82128" stroke-width=".405"/>
<path d="m23.138,245.02c-4.254,6.518-5.807,15.348-2.888,23.061" fill="none" stroke="#000" stroke-linecap="square" stroke-miterlimit="9.82128" stroke-width=".405"/>
<path d="m14.474,250.787c-.462-7.244 1.559-14.314 5.776-20.178" fill="none" stroke="#000" stroke-linecap="square" stroke-miterlimit="9.82128" stroke-width=".405"/>
<path d="m10.141,242.139c0-9.607-.132-17.43 4.333-25.939" fill="none" stroke="#000" stroke-linecap="square" stroke-miterlimit="9.82128" stroke-width=".405"/>
<path d="m57.8,227.729c5.723,5.98 9.951,14.584 8.664,23.059" fill="none" stroke="#000" stroke-linecap="square" stroke-miterlimit="9.82128" stroke-width=".405"/>
<path d="m69.352,256.551c1.835-7.336 2.272-14.52-1.444-21.617" fill="none" stroke="#000" stroke-linecap="square" stroke-miterlimit="9.82128" stroke-width=".405"/>
<path d="m80.905,276.725c6.285-6.203 17.383-6.703 20.219-15.852" fill="none" stroke="#000" stroke-linecap="square" stroke-miterlimit="9.82128" stroke-width=".405"/>
<path d="m95.349,243.58c-.075-7.754 2.184-15.396 7.221-21.619" fill="none" stroke="#000" stroke-linecap="square" stroke-miterlimit="9.82128" stroke-width=".405"/>
<path d="m50.578,200.347c-.353,3.988-1.315,7.831-2.889,11.528" fill="none" stroke="#000" stroke-linecap="square" stroke-miterlimit="9.82128" stroke-width=".405"/>
<path d="m44.8,203.228c-.082-5.035 1.957-9.677 5.778-12.971" fill="none" stroke="#000" stroke-linecap="square" stroke-miterlimit="9.82128" stroke-width=".405"/>
<path d="m54.911,175.844c-6.303,3.582-11.084,9.598-14.442,15.854" fill="none" stroke="#000" stroke-linecap="square" stroke-miterlimit="9.82128" stroke-width=".405"/>
<path d="m40.469,180.169c4.882-5.53 9.191-10.912 15.886-14.411" fill="none" stroke="#000" stroke-linecap="square" stroke-miterlimit="9.82128" stroke-width=".405"/>
<path d="m8.696,198.903c1.15-6.224 3.31-12.264 7.221-17.292" fill="none" stroke="#000" stroke-linecap="square" stroke-miterlimit="9.82128" stroke-width=".405"/>
<path d="m11.585,183.05c.82-6.752 5.944-11.165 11.553-14.411" fill="none" stroke="#000" stroke-linecap="square" stroke-miterlimit="9.82128" stroke-width=".405"/>
<path d="m15.917,170.082c2.754-3.26 6.124-5.662 10.109-7.207" fill="none" stroke="#000" stroke-linecap="square" stroke-miterlimit="9.82128" stroke-width=".405"/>
<path d="m112.678,253.668c5.343-2.734 7.544-7.697 10.11-12.971" fill="none" stroke="#000" stroke-linecap="square" stroke-miterlimit="9.82128" stroke-width=".405"/>
<path d="m127.12,237.814c-.33,5.494-2.26,10.609-4.332,15.854" fill="none" stroke="#000" stroke-linecap="square" stroke-miterlimit="9.82128" stroke-width=".405"/>
<path d="m127.12,252.227c3.947-7.453 6.816-14.518 5.776-23.059" fill="none" stroke="#000" stroke-linecap="square" stroke-miterlimit="9.82128" stroke-width=".405"/>
<path d="m112.678,236.375c-.977-7.016 3.077-12.674 5.778-18.736" fill="none" stroke="#000" stroke-linecap="square" stroke-miterlimit="9.82128" stroke-width=".405"/>
<path d="m112.678,214.756c5.109-4.369 7.663-10.745 8.665-17.292" fill="none" stroke="#000" stroke-linecap="square" stroke-miterlimit="9.82128" stroke-width=".405"/>
<path d="m122.788,203.228c2.113-4.146 2.121-8.85 0-12.971" fill="none" stroke="#000" stroke-linecap="square" stroke-miterlimit="9.82128" stroke-width=".405"/>
<path d="m147.339,232.051c4.77-2.01 7.77-6.436 8.665-11.529" fill="none" stroke="#000" stroke-linecap="square" stroke-miterlimit="9.82128" stroke-width=".405"/>
<path d="m148.782,224.846c4.994-2.004 7.851-6.141 7.222-11.529" fill="none" stroke="#000" stroke-linecap="square" stroke-miterlimit="9.82128" stroke-width=".405"/>
<path d="m150.228,207.551c2.396-3.494 3.365-7.339 2.888-11.529" fill="none" stroke="#000" stroke-linecap="square" stroke-miterlimit="9.82128" stroke-width=".405"/>
<path d="m157.448,206.109c2.645-9.515.438-17.983-1.444-27.382" fill="none" stroke="#000" stroke-linecap="square" stroke-miterlimit="9.82128" stroke-width=".405"/>
<path d="m166.112,194.58c0-12.098-1.489-24.357-8.664-34.588" fill="none" stroke="#000" stroke-linecap="square" stroke-miterlimit="9.82128" stroke-width=".405"/>
<path d="m78.019,145.581c-.008-5.539 1.689-10.942 4.332-15.853" fill="none" stroke="#000" stroke-linecap="square" stroke-miterlimit="9.82128" stroke-width=".405"/>
<path d="m72.24,141.258c.14-6.828 3.422-14.191 8.665-18.734" fill="none" stroke="#000" stroke-linecap="square" stroke-miterlimit="9.82128" stroke-width=".405"/>
<path d="m70.797,119.641c4.067-4.729 9.599-7.678 15.886-7.206" fill="none" stroke="#000" stroke-linecap="square" stroke-miterlimit="9.82128" stroke-width=".405"/>
<path d="m75.13,110.995c3.31-2.83 7.193-3.764 11.553-2.883" fill="none" stroke="#000" stroke-linecap="square" stroke-miterlimit="9.82128" stroke-width=".405"/>
<path d="m127.12,93.699c6.609-.592 14.685-.049 20.219,2.883" fill="none" stroke="#000" stroke-linecap="square" stroke-miterlimit="9.82128" stroke-width=".405"/>
<path d="m144.45,92.259c-5.258-3.969-10.973-2.883-17.33-2.883" fill="none" stroke="#000" stroke-linecap="square" stroke-miterlimit="9.82128" stroke-width=".405"/>
<path d="m131.453,99.465c8.478,2.319 27.572,10.421 28.884,15.853 9.729,10.598 29.436,24.657 23.107,41.792l-1.445-1.442c0,24.672-3.342,50.205-15.887,72.06l-1.443-2.883c-4.276,8.953-8.999,16.02-17.33,21.617l1.443-2.883c-3.562,4.881-8.107,9.42-12.996,12.971 16.457-6.568 45.057-6.813 56.322-21.617" fill="none" stroke="#000" stroke-linecap="square" stroke-miterlimit="9.82128" stroke-width=".405"/>
<path d="m171.891,233.49c4.06-6.316 8.479-12.824 10.108-20.174" fill="none" stroke="#000" stroke-linecap="square" stroke-miterlimit="9.82128" stroke-width=".405"/>
<path d="m170.444,239.258c1.955-1.545 3.406-3.469 4.335-5.768" fill="none" stroke="#000" stroke-linecap="square" stroke-miterlimit="9.82128" stroke-width=".405"/>
<path d="m212.328,240.697c-1.563-1.51-1.988-3.521-1.443-5.764" fill="none" stroke="#000" stroke-linecap="square" stroke-miterlimit="9.82128" stroke-width=".405"/>
<path d="m209.439,226.285c-3.516,3.578-5.379,7.889-5.776,12.973" fill="none" stroke="#000" stroke-linecap="square" stroke-miterlimit="9.82128" stroke-width=".405"/>
<path d="m199.331,233.49c-1.142-9.584 8.84-16.496 15.885-21.615" fill="none" stroke="#000" stroke-linecap="square" stroke-miterlimit="9.82128" stroke-width=".405"/>
<path d="m207.996,204.669c-7.122,3.79-12.703,12.889-15.887,20.176l2.89-1.441c-2.313,4.922-3.399,10.438-2.89,15.854l2.89-2.883c.146,10.76 10.768,25.311 18.773,31.705" fill="none" stroke="#000" stroke-linecap="square" stroke-miterlimit="9.82128" stroke-width=".405"/>
<path d="m219.548,257.992c-2.482-1.75-4.051-4.295-4.332-7.205" fill="none" stroke="#000" stroke-linecap="square" stroke-miterlimit="9.82128" stroke-width=".405"/>
<path d="m215.216,257.992c-4.148-4.156-6.635-9.428-4.332-14.412" fill="none" stroke="#000" stroke-linecap="square" stroke-miterlimit="9.82128" stroke-width=".405"/>
<path d="m233.99,245.02c-1.227,1.742-1.711,3.664-1.443,5.768" fill="none" stroke="#000" stroke-linecap="square" stroke-miterlimit="9.82128" stroke-width=".405"/>
<path d="m235.435,249.344c-1.229,1.74-1.713,3.662-1.445,5.766" fill="none" stroke="#000" stroke-linecap="square" stroke-miterlimit="9.82128" stroke-width=".405"/>
<path d="m229.658,262.316c3.898,4.271 8.102,8.453 12.998,11.527" fill="none" stroke="#000" stroke-linecap="square" stroke-miterlimit="9.82128" stroke-width=".405"/>
<path d="m248.433,276.725c4.498,6.152 14.479,7.947 21.662,11.529" fill="none" stroke="#000" stroke-linecap="square" stroke-miterlimit="9.82128" stroke-width=".405"/>
<path d="m262.875,291.139c5.281,1.852 9.381,5.697 12.998,10.09" fill="none" stroke="#000" stroke-linecap="square" stroke-miterlimit="9.82128" stroke-width=".405"/>
<path d="m316.31,347.344c2.439,5.367 2.439,11.775-2.889,14.41" fill="none" stroke="#000" stroke-linecap="square" stroke-miterlimit="9.82128" stroke-width=".405"/>
<path d="m329.308,367.521c5.039-4.025 5.396-10.334 2.889-15.854" fill="none" stroke="#000" stroke-linecap="square" stroke-miterlimit="9.82128" stroke-width=".405"/>
<path d="m337.972,345.902c3.535,4.074 5.043,9 4.332,14.412" fill="none" stroke="#000" stroke-linecap="square" stroke-miterlimit="9.82128" stroke-width=".405"/>
<path d="m371.189,317.08c4.531-3.459 6.57-8.688 5.777-14.412" fill="none" stroke="#000" stroke-linecap="square" stroke-miterlimit="9.82128" stroke-width=".405"/>
<path d="m388.521,301.229c1.379,6.584-.877,12.873-5.779,17.291" fill="none" stroke="#000" stroke-linecap="square" stroke-miterlimit="9.82128" stroke-width=".405"/>
<path d="m394.296,301.229c-1.324-1.182-2.293-2.639-2.889-4.326" fill="none" stroke="#000" stroke-linecap="square" stroke-miterlimit="9.82128" stroke-width=".405"/>
<path d="m358.191,285.373c-1.91,1.92-3.568,3.16-5.775,4.324" fill="none" stroke="#000" stroke-linecap="square" stroke-miterlimit="9.82128" stroke-width=".405"/>
<path d="m345.195,272.402c-2.014-3.26-2.014-6.828 0-10.086" fill="none" stroke="#000" stroke-linecap="square" stroke-miterlimit="9.82128" stroke-width=".405"/>
<path d="m337.972,262.316c.635-3.246 2.131-6.268 4.332-8.648" fill="none" stroke="#000" stroke-linecap="square" stroke-miterlimit="9.82128" stroke-width=".405"/>
<path d="m336.529,257.992c1.463-3.607 3.443-7.076 5.775-10.088" fill="none" stroke="#000" stroke-linecap="square" stroke-miterlimit="9.82128" stroke-width=".405"/>
<path d="m358.191,249.344c-.268-2.102.217-4.023 1.443-5.764" fill="none" stroke="#000" stroke-linecap="square" stroke-miterlimit="9.82128" stroke-width=".405"/>
<path d="m356.748,243.58c1.229-1.74 1.713-3.664 1.443-5.766" fill="none" stroke="#000" stroke-linecap="square" stroke-miterlimit="9.82128" stroke-width=".405"/>
<path d="m355.302,237.814c1.254-2.756 1.736-5.637 1.445-8.646" fill="none" stroke="#000" stroke-linecap="square" stroke-miterlimit="9.82128" stroke-width=".405"/>
<path d="m335.083,227.729c.408,3.494-.072,6.865-1.443,10.086" fill="none" stroke="#000" stroke-linecap="square" stroke-miterlimit="9.82128" stroke-width=".405"/>
<path d="m332.197,233.49c-1.238,2.289-2.203,4.693-2.889,7.207" fill="none" stroke="#000" stroke-linecap="square" stroke-miterlimit="9.82128" stroke-width=".405"/>
<path d="m327.865,220.521c5.6-12.734-6.506-17.941-10.111-27.381" fill="none" stroke="#000" stroke-linecap="square" stroke-miterlimit="9.82128" stroke-width=".405"/>
<path d="m322.085,213.316c.479,4.189-.49,8.035-2.889,11.529" fill="none" stroke="#000" stroke-linecap="square" stroke-miterlimit="9.82128" stroke-width=".405"/>
<path d="m307.646,223.404c-3.363,5.332-7.662,9.615-13,12.971" fill="none" stroke="#000" stroke-linecap="square" stroke-miterlimit="9.82128" stroke-width=".405"/>
<path d="m304.757,211.875c-.533,4.424-2.057,8.951-4.334,12.971" fill="none" stroke="#000" stroke-linecap="square" stroke-miterlimit="9.82128" stroke-width=".405"/>
<path d="m296.091,230.609c-3.002,3.029-6.039,5.031-8.664,5.766" fill="none" stroke="#000" stroke-linecap="square" stroke-miterlimit="9.82128" stroke-width=".405"/>
<path d="m293.203,266.639c-4.611-1.781-9.871-.025-12.998,2.883" fill="none" stroke="#000" stroke-linecap="square" stroke-miterlimit="9.82128" stroke-width=".405"/>
<path d="m280.205,269.521c.205-1.287-.318-2.223-1.445-2.883" fill="none" stroke="#000" stroke-linecap="square" stroke-miterlimit="9.82128" stroke-width=".405"/>
<path d="m275.873,263.756c1.18-6.863 10.006-5.416 14.441-1.439-5.666,4.854-13.785,5.436-15.887-1.443" fill="none" stroke="#000" stroke-linecap="square" stroke-miterlimit="9.82128" stroke-width=".405"/>
<path d="m277.316,270.963c-6.236-12.455-17.502-23.652-21.662-36.029" fill="none" stroke="#000" stroke-linecap="square" stroke-miterlimit="9.82128" stroke-width=".405"/>
<path d="m261.429,246.463c9.516,3.242 20.291,4.445 30.33,7.205" fill="none" stroke="#000" stroke-linecap="square" stroke-miterlimit="9.82128" stroke-width=".405"/>
<path d="m288.871,255.109c1.598,1.945 2.037,4.514 1.443,7.207" fill="none" stroke="#000" stroke-linecap="square" stroke-miterlimit="9.82128" stroke-width=".405"/>
<path d="m267.207,232.051c2.178-7.025 3.262-18.271-4.332-21.619" fill="none" stroke="#000" stroke-linecap="square" stroke-miterlimit="9.82128" stroke-width=".405"/>
<path d="m274.427,232.051c2.666-2.734 3.619-6.248 2.889-10.09" fill="none" stroke="#000" stroke-linecap="square" stroke-miterlimit="9.82128" stroke-width=".405"/>
<path d="m296.091,200.347c2.588-6.235 1.121-12.641-1.445-18.736" fill="none" stroke="#000" stroke-linecap="square" stroke-miterlimit="9.82128" stroke-width=".405"/>
<path d="m298.978,204.669c3.658-7.642 2.326-13.722 0-21.619" fill="none" stroke="#000" stroke-linecap="square" stroke-miterlimit="9.82128" stroke-width=".405"/>
<path d="m304.757,190.257c.268-2.103-.217-4.025-1.445-5.765" fill="none" stroke="#000" stroke-linecap="square" stroke-miterlimit="9.82128" stroke-width=".405"/>
<path d="m268.652,172.963c-6.734-1.943-16.303.44-20.219,7.206" fill="none" stroke="#000" stroke-linecap="square" stroke-miterlimit="9.82128" stroke-width=".405"/>
<path d="m248.433,151.346c-4.127,1.988-7.705,5.031-10.111,8.646" fill="none" stroke="#000" stroke-linecap="square" stroke-miterlimit="9.82128" stroke-width=".405"/>
<path d="m226.769,168.64c-2.332,3.013-4.313,6.481-5.775,10.088" fill="none" stroke="#000" stroke-linecap="square" stroke-miterlimit="9.82128" stroke-width=".405"/>
<path d="m226.769,174.404c-1.4,2.193-1.873,4.61-1.443,7.207" fill="none" stroke="#000" stroke-linecap="square" stroke-miterlimit="9.82128" stroke-width=".405"/>
<path d="m219.548,185.934c-2.373,1.833-3.814,4.239-4.332,7.207" fill="none" stroke="#000" stroke-linecap="square" stroke-miterlimit="9.82128" stroke-width=".405"/>
<path d="m213.771,185.934c-4.254,3.277-7.186,7.862-8.665,12.969" fill="none" stroke="#000" stroke-linecap="square" stroke-miterlimit="9.82128" stroke-width=".405"/>
<path d="m187.776,211.875c1.702-5.086 1.628-10.744 0-15.854" fill="none" stroke="#000" stroke-linecap="square" stroke-miterlimit="9.82128" stroke-width=".405"/>
<path d="m190.665,200.347c.291-3.01-.191-5.893-1.445-8.648" fill="none" stroke="#000" stroke-linecap="square" stroke-miterlimit="9.82128" stroke-width=".405"/>
<path d="m190.665,180.169c.291-3.01-.191-5.893-1.445-8.648" fill="none" stroke="#000" stroke-linecap="square" stroke-miterlimit="9.82128" stroke-width=".405"/>
<path d="m193.553,174.404c-.688-2.512-1.651-4.918-2.888-7.206" fill="none" stroke="#000" stroke-linecap="square" stroke-miterlimit="9.82128" stroke-width=".405"/>
<path d="m197.886,162.875c2.459-6.799-.758-13.535-2.888-20.175" fill="none" stroke="#000" stroke-linecap="square" stroke-miterlimit="9.82128" stroke-width=".405"/>
<path d="m202.218,171.521c2.078-6.592 2.129-13.655 0-20.175" fill="none" stroke="#000" stroke-linecap="square" stroke-miterlimit="9.82128" stroke-width=".405"/>
<path d="m206.55,157.11c-.963-2.882-1.925-5.765-2.887-8.648" fill="none" stroke="#000" stroke-linecap="square" stroke-miterlimit="9.82128" stroke-width=".405"/>
<path d="m207.996,139.816c-2.201-4.908-5.5-9.527-10.11-11.529" fill="none" stroke="#000" stroke-linecap="square" stroke-miterlimit="9.82128" stroke-width=".405"/>
<path d="m161.78,108.111c4.848,1.997 9.091,3.957 12.999,7.207" fill="none" stroke="#000" stroke-linecap="square" stroke-miterlimit="9.82128" stroke-width=".405"/>
<path d="m154.561,103.789c5.427-.511 10.933.596 15.884,2.881" fill="none" stroke="#000" stroke-linecap="square" stroke-miterlimit="9.82128" stroke-width=".405"/>
<path d="m138.675,79.288c6.061,2.016 12.057,3.522 17.329,7.204" fill="none" stroke="#000" stroke-linecap="square" stroke-miterlimit="9.82128" stroke-width=".405"/>
<path d="m156.004,83.611c3.964,1.415 6.019,4.471 5.776,8.648" fill="none" stroke="#000" stroke-linecap="square" stroke-miterlimit="9.82128" stroke-width=".405"/>
<path d="m176.223,82.169c4.778,1.655 9.049,4.195 12.997,7.206" fill="none" stroke="#000" stroke-linecap="square" stroke-miterlimit="9.82128" stroke-width=".405"/>
<path d="m210.884,80.729c3.801,3.421 7.246,7.294 10.109,11.529" fill="none" stroke="#000" stroke-linecap="square" stroke-miterlimit="9.82128" stroke-width=".405"/>
<path d="m228.214,89.375c1.926,2.882 3.852,5.764 5.775,8.646" fill="none" stroke="#000" stroke-linecap="square" stroke-miterlimit="9.82128" stroke-width=".405"/>
<path d="m233.99,89.375 2.889,5.765" fill="none" stroke="#000" stroke-linecap="square" stroke-miterlimit="9.82128" stroke-width=".405"/>
<path d="m252.765,125.404c2.482-5.509 6.227-10.198 11.555-12.969" fill="none" stroke="#000" stroke-linecap="square" stroke-miterlimit="9.82128" stroke-width=".405"/>
<path d="m258.541,131.17c.178-4.483 2.252-8.594 5.779-11.53" fill="none" stroke="#000" stroke-linecap="square" stroke-miterlimit="9.82128" stroke-width=".405"/>
<path d="m307.646,134.052c-5.668,6.237-1.949,14.486 2.887,20.177" fill="none" stroke="#000" stroke-linecap="square" stroke-miterlimit="9.82128" stroke-width=".405"/>
<path d="m313.421,145.581c-2.604,5.34 1.059,10.258 7.221,11.529" fill="none" stroke="#000" stroke-linecap="square" stroke-miterlimit="9.82128" stroke-width=".405"/>
<path d="m350.97,168.64c4.252,7.333 5.529,16.013 2.889,24.5" fill="none" stroke="#000" stroke-linecap="square" stroke-miterlimit="9.82128" stroke-width=".405"/>
<path d="m358.191,198.903c2.256-6.391 2.023-13.704 0-20.175" fill="none" stroke="#000" stroke-linecap="square" stroke-miterlimit="9.82128" stroke-width=".405"/>
<path d="m361.08,164.317c-2.086-6.078-5.609-11.279-10.109-15.854" fill="none" stroke="#000" stroke-linecap="square" stroke-miterlimit="9.82128" stroke-width=".405"/>
<path d="m352.416,139.816c4.254,3.277 7.186,7.863 8.664,12.971" fill="none" stroke="#000" stroke-linecap="square" stroke-miterlimit="9.82128" stroke-width=".405"/>
<path d="m362.523,145.581c2.643,4.911 4.342,10.315 4.334,15.854" fill="none" stroke="#000" stroke-linecap="square" stroke-miterlimit="9.82128" stroke-width=".405"/>
<path d="m362.523,214.756c-.857.744-1.777,2.781-1.443,0-1.229,5.543-6.076,11.639-8.664,11.529-2.127,4.127-4.475,7.873-7.221,11.529v-2.881c-2.846,3.418-5.711,6.754-8.666,10.086 1.063-1.861 1.885-3.867 2.887-5.762-3.418,3.871-7.121,7.555-11.551,10.086" fill="none" stroke="#000" stroke-linecap="square" stroke-miterlimit="9.82128" stroke-width=".405"/>
<path d="m281.648,105.228c10.549,13.584 16.85,1.664 27.441,4.323 10.33,2.594 10.785,16.544 25.994,10.089" fill="none" stroke="#000" stroke-linecap="square" stroke-miterlimit="9.82128" stroke-width=".405"/>
<path d="m320.642,123.964c-11.648,2.481-18.086-1.289-25.996-10.088" fill="none" stroke="#000" stroke-linecap="square" stroke-miterlimit="9.82128" stroke-width=".405"/>
<path d="m290.314,105.228c-15.09-2.491-28.488.307-43.324,1.442" fill="none" stroke="#000" stroke-linecap="square" stroke-miterlimit="9.82128" stroke-width=".405"/>
<path d="m236.878,100.905c19.971-1.991 39.533-2.488 59.213,1.441" fill="none" stroke="#000" stroke-linecap="square" stroke-miterlimit="9.82128" stroke-width=".405"/>
<path d="m293.203,96.582c-11.979-4.73-30.795-6.708-43.326-2.883" fill="none" stroke="#000" stroke-linecap="square" stroke-miterlimit="9.82128" stroke-width=".405"/>
<path d="m303.312,95.14c10.15-8.883 22.537,8.569 11.553,4.325-.932,4.81-2.109,4.152-5.775,7.205-1.02-4.596-2.789-4.906-1.443-8.648-4.786,1.291-2.696-1.547-4.335-2.882" fill="none" stroke="#000" stroke-linecap="square" stroke-miterlimit="9.82128" stroke-width=".405"/>
<path d="m304.757,98.022c-.205,1.287.316,2.224 1.443,2.883" fill="none" stroke="#000" stroke-linecap="square" stroke-miterlimit="9.82128" stroke-width=".405"/>
<path d="m314.865,102.347c1.287.205 2.227-.316 2.889-1.441" fill="none" stroke="#000" stroke-linecap="square" stroke-miterlimit="9.82128" stroke-width=".405"/>
<path d="m310.533,99.465c-.752,3.397-1.203,6.542-1.443,10.086" fill="none" stroke="#000" stroke-linecap="square" stroke-miterlimit="9.82128" stroke-width=".405"/>
<path d="m375.521,136.933c-16.697-12.502-30.346-20.198-49.102-28.822" fill="none" stroke="#000" stroke-linecap="square" stroke-miterlimit="9.82128" stroke-width=".405"/>
<path d="m330.751,113.876c8.668,5.537 16.084,11.624 24.551,17.294" fill="none" stroke="#000" stroke-linecap="square" stroke-miterlimit="9.82128" stroke-width=".405"/>
<path d="m353.859,115.318c-8.799-3.83-14.682-9.507-24.551-10.09" fill="none" stroke="#000" stroke-linecap="square" stroke-miterlimit="9.82128" stroke-width=".405"/>
<path d="m332.197,89.375c-1.072-.752-1.959.136-2.889-1.439 3.846-11.273 23.867-10.171 20.939-4.325-4.148,8.289-16.561,10.112-19.496,1.442" fill="none" stroke="#000" stroke-linecap="square" stroke-miterlimit="9.82128" stroke-width=".405"/>
<path d="m339.416,86.492c.588-3.017-1.111-4.572 1.445-5.763 .678,2.785-1.067,3.819-1.445,5.763" fill="none" stroke="#000" stroke-linecap="square" stroke-miterlimit="9.82128" stroke-width=".405"/>
<path d="m307.646,77.846c-4.82,10.252-15.887,1.832-15.887-7.204 0-12.438 28.076,17.022 11.553,11.527" fill="none" stroke="#000" stroke-linecap="square" stroke-miterlimit="9.82128" stroke-width=".405"/>
<path d="m297.535,77.846c.197-3.057-.502-4.838 1.443-7.206 .693,3.14-.943,4.898-1.443,7.206" fill="none" stroke="#000" stroke-linecap="square" stroke-miterlimit="9.82128" stroke-width=".405"/>
<path d="m281.648,46.142c-7.088-11.299-2.889-26.132-2.889-38.911 8.775,1.112 27.119,25.041 27.441,30.265-1.682-1.678-3.961-2.788-5.777-4.325 1.045,2.074 1.691,3.751 2.889,5.765-1.867-.24-2.951-1.17-4.334-1.439 .848,1.755 1.75,2.842 2.889,4.323-.973.093-3.512-.489-4.332,0 .182.959 2.703,1.333 1.443,2.881-2.305.267-1.256-1.135-2.887-1.441-.488.747.088,3.408 0,4.323-1.029-.357-2.018-2.202-2.889-2.881 .48,1.442.963,2.883 1.443,4.325-1.613-1.594-4.027-2.589-5.775-4.325 .338,1.862-.305,3.896 0,5.765-1.158-1.966-2.867-3.646-4.332-5.765 .391,2.177.861,3.638 1.443,5.765-.734-1.543-2.621-5.497-3.611-6.485-2.04-2.041.116,1.544-.722,2.16" fill="none" stroke="#000" stroke-linecap="square" stroke-miterlimit="9.82128" stroke-width=".405"/>
<path d="m280.205,63.436c.117,3.843 1.879,7.266 4.334,8.648" fill="none" stroke="#000" stroke-linecap="square" stroke-miterlimit="9.82128" stroke-width=".405"/>
<path d="m280.205,73.523 4.334,4.323" fill="none" stroke="#000" stroke-linecap="square" stroke-miterlimit="9.82128" stroke-width=".405"/>
<path d="m294.646,64.877c-1.602-2.371-2.064-5.508-1.443-8.648" fill="none" stroke="#000" stroke-linecap="square" stroke-miterlimit="9.82128" stroke-width=".405"/>
<path d="m298.978,53.348c1.666,2.321 3.24,4.938 4.334,7.207" fill="none" stroke="#000" stroke-linecap="square" stroke-miterlimit="9.82128" stroke-width=".405"/>
<path d="m307.646,60.554c-1.76-2.74-2.217-6.511-1.445-10.09" fill="none" stroke="#000" stroke-linecap="square" stroke-miterlimit="9.82128" stroke-width=".405"/>
<path d="m310.533,50.464c-.752,3.399-1.203,6.545-1.443,10.09" fill="none" stroke="#000" stroke-linecap="square" stroke-miterlimit="9.82128" stroke-width=".405"/>
<path d="m293.203,31.729c.291-3.009-.191-5.891-1.443-8.646" fill="none" stroke="#000" stroke-linecap="square" stroke-miterlimit="9.82128" stroke-width=".405"/>
<path d="m313.421,44.7c.688-2.238 1.574-4.027 2.889-5.765" fill="none" stroke="#000" stroke-linecap="square" stroke-miterlimit="9.82128" stroke-width=".405"/>
<path d="m316.31,46.142c-.295-2.49.717-4.391 2.887-5.765" fill="none" stroke="#000" stroke-linecap="square" stroke-miterlimit="9.82128" stroke-width=".405"/>
<path d="m320.642,53.348c.688-2.512 1.65-4.918 2.887-7.206" fill="none" stroke="#000" stroke-linecap="square" stroke-miterlimit="9.82128" stroke-width=".405"/>
<path d="m324.976,47.581c.652-2.234 2.096-3.674 4.332-4.323" fill="none" stroke="#000" stroke-linecap="square" stroke-miterlimit="9.82128" stroke-width=".405"/>
<path d="m342.304,64.877c1.373-3.222 1.852-6.594 1.443-10.089" fill="none" stroke="#000" stroke-linecap="square" stroke-miterlimit="9.82128" stroke-width=".405"/>
<path d="m349.527,57.671c-1.549,3.98-3.957,7.344-7.223,10.088" fill="none" stroke="#000" stroke-linecap="square" stroke-miterlimit="9.82128" stroke-width=".405"/>
<path d="m345.195,69.2c1.689-.592 3.148-1.559 4.332-2.883" fill="none" stroke="#000" stroke-linecap="square" stroke-miterlimit="9.82128" stroke-width=".405"/>
<path d="m348.083,74.963c1.184-1.323 2.643-2.288 4.332-2.879" fill="none" stroke="#000" stroke-linecap="square" stroke-miterlimit="9.82128" stroke-width=".405"/>
<path d="m352.416,74.963c3.686-1.691 5.434-4.582 5.775-8.646" fill="none" stroke="#000" stroke-linecap="square" stroke-miterlimit="9.82128" stroke-width=".405"/>
<path d="m356.748,106.67c2.262,3.994 5.363,5.747 8.666,4.325" fill="none" stroke="#000" stroke-linecap="square" stroke-miterlimit="9.82128" stroke-width=".405"/>
<path d="m355.302,100.905c3.387,4.264 7.529,7.206 13,7.206" fill="none" stroke="#000" stroke-linecap="square" stroke-miterlimit="9.82128" stroke-width=".405"/>
<path d="m365.414,103.789c3.076.074 5.891-.402 8.664-1.442" fill="none" stroke="#000" stroke-linecap="square" stroke-miterlimit="9.82128" stroke-width=".405"/>
<path d="m378.41,80.729c1.955-1.544 3.404-3.469 4.332-5.767" fill="none" stroke="#000" stroke-linecap="square" stroke-miterlimit="9.82128" stroke-width=".405"/>
<path d="m384.187,79.288c1.252-2.756 1.734-5.639 1.443-8.648" fill="none" stroke="#000" stroke-linecap="square" stroke-miterlimit="9.82128" stroke-width=".405"/>
<path d="m372.634,51.906c-1.271-15.737 21.039-27.823 33.215-33.147 1.141,14.406-4.023,34.972-17.328,41.795 .836-2.15.883-3.668 1.443-5.767-3.125,4.186-4.086,4.197-8.666,5.767 .268.659 1.451-2.984 1.443-2.883-1.352.645-2.953,2.075-4.332,2.883 .521-2.146.631-3.596 1.443-5.767-1.031.856-1.932,1.941-2.887,2.883 1.023-3.235 1.365-6.649 2.887-10.09-1.803,2.016-4.08,3.664-5.775,5.767 1.051-2.066 1.684-4.888 2.889-7.206-2.293,1.625-3.177,3.802-4.332,5.765" fill="none" stroke="#000" stroke-linecap="square" stroke-miterlimit="9.82128" stroke-width=".405"/>
<path d="m382.742,43.258c-1.756-1.621-1.48-3.697 0-5.763" fill="none" stroke="#000" stroke-linecap="square" stroke-miterlimit="9.82128" stroke-width=".405"/>
<path d="m385.63,40.377c-1.711-1.252-1.49-2.75 0-4.325" fill="none" stroke="#000" stroke-linecap="square" stroke-miterlimit="9.82128" stroke-width=".405"/>
<path d="m169.001,379.051c-9.879-8.861-12.484-18.539-24.551-24.502h4.332c-.506-2.188-2.023-3.467-2.889-5.764 1.268-.143 3.139.418 4.334,0-3.945-3.34-24.613-11.971-10.109-14.412 .018.004 8.746,1.703 12.997,0l-1.443-1.441c21.587-9.656 49.044,27.164 57.767,43.234-10.553,3.373-30.424,8.012-40.438,2.885m144.42-17.297c-11.873,5.443-22.941-19.086-25.994-25.939l2.887-1.441c-3.688-2.279-2.549-2.402-4.332-5.764 10.922-1.557 15.27,4.27 21.664,4.322 4.77,3.387 9.598,4.615 17.33,7.207h-2.891c5.932,2.666 9.695.701 8.666-5.766 34.887,11.141-2.996,51.406-17.33,27.381m-41.88-102.32c-3.561-4.178-6.6-8.627-10.111-12.971 8.926,3.041 42.002,1.793 31.773,20.176-3.857-2.326-12.393,1.082-15.887,4.324l-5.775-11.529m4.332,4.322c1.18-6.863 10.006-5.416 14.441-1.439-4.734,4.054-11.174,4.734-14.441,1.439m76.543,25.941c5.984-4.596 12.338-.363 17.33,0 7.855.574 9.695-3.732 17.33,2.883v-2.883c13.93,10.506 9.119,26.904-7.223,28.822-19.469,2.288-22.568-12.876-27.437-28.822m-10.112-51.883c2.236-8.699 6.018-10.041 4.334-18.734 1.061,1.904 2.205,2.254 2.889,4.324 1.662-7.635 1.496-16.045-7.223-18.735v2.881c-4.744-9.382-21.98-14.279-21.662-24.5-4.654.222-14.83-5.391-14.441-12.969-2.779,2.768-5.059,3.166-7.223,7.206v-4.325c-1.182.28-1.061,2.499-2.887,1.441-.639-4.689.316-9.018 2.887-12.969l-1.443,1.44c-1.832-6.687-10.396-13.667-14.441-12.969 0-6.542 3.598-22.83-7.221-17.296 .219-1.362 1.369-.984 1.443-2.881-2.951,1.291-5.854,1.034-8.664,2.881 2.83-6.353 4.658-11.774 10.107-15.853-3.389-.964-5.314-1.856-10.107-1.439 1.893-1.155 3.668-2.866 5.775-4.323-.611-.244-4.1-1.263-4.332-1.443l2.889-1.44c.402,1.296-3.076-1.581-2.889-1.441 3.35-4.633 4.768-1.819 1.445-8.648 5.822,2.779 9.922,8.34 15.887,10.089-2.492-3.848-2.832-3.467 0-8.646l-2.889,1.44c-.098-4.18-1.287-6 0-10.088l-1.445,1.441c1.813-10.149 11.238-6.163 15.885-7.206 1.17,1.388 2.209,4.074 2.889,5.765l1.445-2.881c-1.156,7.662 2.406,12.736 5.777,18.734 4.465-3.056 6.537-4.926 11.553-5.765-.578-4.471-3.82-7.451-8.664-8.646 2.275-1.831 2.18-3.257 4.332-5.767l-2.889,2.883c2.633-5.253 5.361-10.285 7.221-15.852l1.443,1.439c1.676-5.089 1.811-10.468 1.443-15.852 .217-.909 4.914-9.045 10.111-11.53-3.141,4.714-4.395,10.077-4.332,15.854l1.443-1.442c.58,5.205 1.303,9.041 1.445,14.413l1.443-1.444c-.936,1.595-1.51,4.028-2.889,5.767l-1.443-1.441c-.666,3.361-2.018,5.512-2.889,8.648v-2.883c-1.898,4.375-.225,8.228 4.332,10.087l-1.443-1.441c5.895,2.501 10.354.246 13.719,3.604 3.633,3.624 3.674,9.034 9.389,12.249h-2.889c14.148,7.968 13.217,15.72 28.883,1.443-9.871,12.066.242,33.55 4.332,46.116-.809-1.985-2.076-3.782-2.889-5.765 .094,5.069.547,9.554 1.445,14.413l-1.445-2.883c1.225,3.23 1.74,6.798 2.889,10.088-.939-.981-1.928-1.92-2.889-2.881 .682,3.778.523,7.807 1.445,11.529l-1.445-2.883c1.273,9.799-6.221,26.863-12.996,28.823-2.16,3.76-5.563,7.109-5.777,7.205-1.229,5.543-6.076,11.639-8.664,11.529-2.127,4.127-4.475,7.873-7.221,11.529v-2.881l-2.889,2.881" fill="#d9d9c5" fill-rule="evenodd" stroke="#000" stroke-miterlimit="9.82128" stroke-width=".405"/>
<path d="m169.001,379.051c-9.879-8.861-12.484-18.539-24.551-24.502h4.332c-.506-2.188-2.023-3.467-2.889-5.764 1.268-.143 3.139.418 4.334,0-3.945-3.34-24.613-11.971-10.109-14.412 .018.004 8.746,1.703 12.997,0l-1.443-1.441c21.587-9.656 49.044,27.164 57.767,43.234-10.553,3.373-30.424,8.012-40.438,2.885" fill="none" stroke="#000" stroke-linecap="square" stroke-miterlimit="9.82128" stroke-width=".405"/>
<path d="m313.421,361.754c-11.873,5.443-22.941-19.086-25.994-25.939l2.887-1.441c-3.688-2.279-2.549-2.402-4.332-5.764 10.922-1.557 15.27,4.27 21.664,4.322 4.77,3.387 9.598,4.615 17.33,7.207h-2.891c5.932,2.666 9.695.701 8.666-5.766 34.887,11.141-2.996,51.406-17.33,27.381" fill="none" stroke="#000" stroke-linecap="square" stroke-miterlimit="9.82128" stroke-width=".405"/>
<path d="m271.541,259.434c-3.561-4.178-6.6-8.627-10.111-12.971 8.926,3.041 42.002,1.793 31.773,20.176-3.857-2.326-12.393,1.082-15.887,4.324l-5.775-11.529" fill="none" stroke="#000" stroke-linecap="square" stroke-miterlimit="9.82128" stroke-width=".405"/>
<path d="m275.873,263.756c1.18-6.863 10.006-5.416 14.441-1.439-4.734,4.054-11.174,4.734-14.441,1.439" fill="none" stroke="#000" stroke-linecap="square" stroke-miterlimit="9.82128" stroke-width=".405"/>
<path d="m352.416,289.697c5.984-4.596 12.338-.363 17.33,0 7.855.574 9.695-3.732 17.33,2.883v-2.883c13.93,10.506 9.119,26.904-7.223,28.822-19.469,2.288-22.568-12.876-27.437-28.822" fill="none" stroke="#000" stroke-linecap="square" stroke-miterlimit="9.82128" stroke-width=".405"/>
<path d="m342.304,237.814c2.236-8.699 6.018-10.041 4.334-18.734 1.061,1.904 2.205,2.254 2.889,4.324 1.662-7.635 1.496-16.045-7.223-18.735v2.881c-4.744-9.382-21.98-14.279-21.662-24.5-4.654.222-14.83-5.391-14.441-12.969-2.779,2.768-5.059,3.166-7.223,7.206v-4.325c-1.182.28-1.061,2.499-2.887,1.441-.639-4.689.316-9.018 2.887-12.969l-1.443,1.44c-1.832-6.687-10.396-13.667-14.441-12.969 0-6.542 3.598-22.83-7.221-17.296 .219-1.362 1.369-.984 1.443-2.881-2.951,1.291-5.854,1.034-8.664,2.881 2.83-6.353 4.658-11.774 10.107-15.853-3.389-.964-5.314-1.856-10.107-1.439 1.893-1.155 3.668-2.866 5.775-4.323-.611-.244-4.1-1.263-4.332-1.443l2.889-1.44c.402,1.296-3.076-1.581-2.889-1.441 3.35-4.633 4.768-1.819 1.445-8.648 5.822,2.779 9.922,8.34 15.887,10.089-2.492-3.848-2.832-3.467 0-8.646l-2.889,1.44c-.098-4.18-1.287-6 0-10.088l-1.445,1.441c1.813-10.149 11.238-6.163 15.885-7.206 1.17,1.388 2.209,4.074 2.889,5.765l1.445-2.881c-1.156,7.662 2.406,12.736 5.777,18.734 4.465-3.056 6.537-4.926 11.553-5.765-.578-4.471-3.82-7.451-8.664-8.646 2.275-1.831 2.18-3.257 4.332-5.767l-2.889,2.883c2.633-5.253 5.361-10.285 7.221-15.852l1.443,1.439c1.676-5.089 1.811-10.468 1.443-15.852 .217-.909 4.914-9.045 10.111-11.53-3.141,4.714-4.395,10.077-4.332,15.854l1.443-1.442c.58,5.205 1.303,9.041 1.445,14.413l1.443-1.444c-.936,1.595-1.51,4.028-2.889,5.767l-1.443-1.441c-.666,3.361-2.018,5.512-2.889,8.648v-2.883c-1.898,4.375-.225,8.228 4.332,10.087l-1.443-1.441c5.895,2.501 10.354.246 13.719,3.604 3.633,3.624 3.674,9.034 9.389,12.249h-2.889c14.148,7.968 13.217,15.72 28.883,1.443-9.871,12.066.242,33.55 4.332,46.116-.809-1.985-2.076-3.782-2.889-5.765 .094,5.069.547,9.554 1.445,14.413l-1.445-2.883c1.225,3.23 1.74,6.798 2.889,10.088-.939-.981-1.928-1.92-2.889-2.881 .682,3.778.523,7.807 1.445,11.529l-1.445-2.883c1.273,9.799-6.221,26.863-12.996,28.823-2.16,3.76-5.563,7.109-5.777,7.205-1.229,5.543-6.076,11.639-8.664,11.529-2.127,4.127-4.475,7.873-7.221,11.529v-2.881l-2.889,2.881" fill="none" stroke="#000" stroke-linecap="square" stroke-miterlimit="9.82128" stroke-width=".405"/>
<path d="m177.667,351.668c3.506,1.109 6.974,3.115 10.109,5.764" fill="none" stroke="#000" stroke-linecap="square" stroke-miterlimit="9.82128" stroke-width=".405"/>
<path d="m189.22,355.992c3.376,1.139 5.332,3.613 5.778,7.203" fill="none" stroke="#000" stroke-linecap="square" stroke-miterlimit="9.82128" stroke-width=".405"/>
<path d="m313.421,361.754c5.328-2.635 5.328-9.043 2.889-14.41" fill="none" stroke="#000" stroke-linecap="square" stroke-miterlimit="9.82128" stroke-width=".405"/>
<path d="m332.197,351.668c2.508,5.52 2.15,11.828-2.889,15.854" fill="none" stroke="#000" stroke-linecap="square" stroke-miterlimit="9.82128" stroke-width=".405"/>
<path d="m342.304,360.314c.711-5.412-.797-10.338-4.332-14.412" fill="none" stroke="#000" stroke-linecap="square" stroke-miterlimit="9.82128" stroke-width=".405"/>
<path d="m371.189,317.08c4.531-3.459 6.57-8.688 5.777-14.412" fill="none" stroke="#000" stroke-linecap="square" stroke-miterlimit="9.82128" stroke-width=".405"/>
<path d="m388.521,301.229c1.539,6.604-.967,12.834-5.779,17.291" fill="none" stroke="#000" stroke-linecap="square" stroke-miterlimit="9.82128" stroke-width=".405"/>
<path d="m394.296,301.229c-1.324-1.182-2.293-2.639-2.889-4.326" fill="none" stroke="#000" stroke-linecap="square" stroke-miterlimit="9.82128" stroke-width=".405"/>
<path d="m280.205,269.521c.205-1.287-.318-2.223-1.445-2.883" fill="none" stroke="#000" stroke-linecap="square" stroke-miterlimit="9.82128" stroke-width=".405"/>
<path d="m275.873,263.756c.203-1.285-.32-2.223-1.445-2.883" fill="none" stroke="#000" stroke-linecap="square" stroke-miterlimit="9.82128" stroke-width=".405"/>
<path d="m290.314,262.316c.666-2.697.24-5.297-1.443-7.207" fill="none" stroke="#000" stroke-linecap="square" stroke-miterlimit="9.82128" stroke-width=".405"/>
<path d="m350.97,168.64c4.482,7.73 4.932,15.875 2.889,24.5" fill="none" stroke="#000" stroke-linecap="square" stroke-miterlimit="9.82128" stroke-width=".405"/>
<path d="m358.191,198.903c2.256-6.391 2.023-13.704 0-20.175" fill="none" stroke="#000" stroke-linecap="square" stroke-miterlimit="9.82128" stroke-width=".405"/>
<path d="m366.857,161.435c.008-5.539-1.691-10.943-4.334-15.854" fill="none" stroke="#000" stroke-linecap="square" stroke-miterlimit="9.82128" stroke-width=".405"/>
<path d="m352.416,139.816c4.254,3.277 7.186,7.863 8.664,12.971" fill="none" stroke="#000" stroke-linecap="square" stroke-miterlimit="9.82128" stroke-width=".405"/>
<path d="m361.08,164.317c-2.086-6.078-5.609-11.279-10.109-15.854" fill="none" stroke="#000" stroke-linecap="square" stroke-miterlimit="9.82128" stroke-width=".405"/>
<path d="m313.421,145.581c-2.705,5.357 1.299,10.605 7.221,11.529" fill="none" stroke="#000" stroke-linecap="square" stroke-miterlimit="9.82128" stroke-width=".405"/>
<path d="m307.646,134.052c-5.668,6.237-1.949,14.486 2.887,20.177" fill="none" stroke="#000" stroke-linecap="square" stroke-miterlimit="9.82128" stroke-width=".405"/>
<path d="m320.642,123.964c-11.648,2.481-18.086-1.289-25.996-10.088" fill="none" stroke="#000" stroke-linecap="square" stroke-miterlimit="9.82128" stroke-width=".405"/>
<path d="m285.982,108.111c7.777,10.468 14.629-.902 23.107,1.44 10.621,2.934 10.236,16.467 25.994,10.089" fill="none" stroke="#000" stroke-linecap="square" stroke-miterlimit="9.82128" stroke-width=".405"/>
<path d="m310.533,99.465c-.695,3.422-1.143,6.536-1.443,10.086" fill="none" stroke="#000" stroke-linecap="square" stroke-miterlimit="9.82128" stroke-width=".405"/>
<path d="m281.648,105.228-7.221-1.439" fill="none" stroke="#000" stroke-linecap="square" stroke-miterlimit="9.82128" stroke-width=".405"/>
<path d="m287.427,99.465 8.664,2.882" fill="none" stroke="#000" stroke-linecap="square" stroke-miterlimit="9.82128" stroke-width=".405"/>
<path d="m283.093,95.14 10.11,1.442" fill="none" stroke="#000" stroke-linecap="square" stroke-miterlimit="9.82128" stroke-width=".405"/>
<path d="m330.751,113.876c8.668,5.537 16.084,11.624 24.551,17.294" fill="none" stroke="#000" stroke-linecap="square" stroke-miterlimit="9.82128" stroke-width=".405"/>
<path d="m375.521,136.933c-16.697-12.502-30.346-20.198-49.102-28.822" fill="none" stroke="#000" stroke-linecap="square" stroke-miterlimit="9.82128" stroke-width=".405"/>
<path d="m353.859,115.318c-8.799-3.83-14.682-9.507-24.551-10.09" fill="none" stroke="#000" stroke-linecap="square" stroke-miterlimit="9.82128" stroke-width=".405"/>
<path d="m281.648,45.142c-7.252-11.561-2.889-25.994-2.889-38.911 8.775,1.112 27.119,25.041 27.441,30.265-1.682-1.678-3.961-2.788-5.777-4.325 1.045,2.074 1.691,3.751 2.889,5.765-1.867-.239-2.951-1.17-4.334-1.439 .846,1.756 1.75,2.842 2.889,4.323-.973.093-3.512-.489-4.332,0 .182.96 2.703,1.333 1.443,2.881-2.314.295-1.254-1.135-2.887-1.441-.383,1.236.125,3.028 0,4.323-.482.076-2.438-2.53-2.889-2.881v4.325c-1.529-1.341-2.846-2.938-4.332-4.325 .309,1.707.111,4.03 0,5.765-1.158-1.966-2.867-3.646-4.332-5.765 .391,2.177.861,3.638 1.443,5.765-.734-1.543-2.621-5.497-3.611-6.485-2.04-2.041.116,1.544-.722,2.16m90.986,5.764c-1.271-15.737 21.039-27.823 33.215-33.147 1.145,14.46-3.787,34.945-17.328,41.795 1.035-2.208.861-3.592 1.443-5.767-2.939,4.398-3.6,4.551-8.666,5.767 1.082.434 1.434-2.698 1.443-2.883-1.773.794-2.813,1.872-4.332,2.883 .539-2.219.43-3.541 1.443-5.767-.914.792-1.814,2.341-2.887,2.883 .986-3.485 1.234-6.528 2.887-10.09-1.803,2.017-4.074,3.667-5.775,5.767 1.051-2.066 1.684-4.888 2.889-7.206-2.293,1.625-3.177,3.802-4.332,5.765" fill="#966" fill-rule="evenodd" stroke="#000" stroke-miterlimit="9.82128" stroke-width=".405"/>
<path d="m281.648,45.142c-7.252-11.561-2.889-25.994-2.889-38.911 8.775,1.112 27.119,25.041 27.441,30.265-1.682-1.678-3.961-2.788-5.777-4.325 1.045,2.074 1.691,3.751 2.889,5.765-1.867-.239-2.951-1.17-4.334-1.439 .846,1.756 1.75,2.842 2.889,4.323-.973.093-3.512-.489-4.332,0 .182.96 2.703,1.333 1.443,2.881-2.314.295-1.254-1.135-2.887-1.441-.383,1.236.125,3.028 0,4.323-.482.076-2.438-2.53-2.889-2.881v4.325c-1.529-1.341-2.846-2.938-4.332-4.325 .309,1.707.111,4.03 0,5.765-1.158-1.966-2.867-3.646-4.332-5.765 .391,2.177.861,3.638 1.443,5.765-.734-1.543-2.621-5.497-3.611-6.485-2.04-2.041.116,1.544-.722,2.16" fill="none" stroke="#000" stroke-linecap="square" stroke-miterlimit="9.82128" stroke-width=".405"/>
<path d="m372.634,50.906c-1.271-15.737 21.039-27.823 33.215-33.147 1.145,14.46-3.787,34.945-17.328,41.795 1.035-2.208.861-3.592 1.443-5.767-2.939,4.398-3.6,4.551-8.666,5.767 1.082.434 1.434-2.698 1.443-2.883-1.773.794-2.813,1.872-4.332,2.883 .539-2.219.43-3.541 1.443-5.767-.914.792-1.814,2.341-2.887,2.883 .986-3.485 1.234-6.528 2.887-10.09-1.803,2.017-4.074,3.667-5.775,5.767 1.051-2.066 1.684-4.888 2.889-7.206-2.293,1.625-3.177,3.802-4.332,5.765" fill="none" stroke="#000" stroke-linecap="square" stroke-miterlimit="9.82128" stroke-width=".405"/>
<path d="m280.205,269.521c3.287-3.059 9.918-6.223 12.998-1.441-4.221,1.197-8.532,1.678-12.998,1.441m-4.332-5.765c.711-4.133 12.977-7.914 14.441-2.883 1.941,6.678-13.111,4.225-14.441,2.883m31.773-159.967c-.074-11.354 11.523-14.257 12.996-2.883-2.266-1.102-4.084-.633-5.777-1.44-.932,4.81-2.109,4.152-5.775,7.205 .247-1.574-.397-1.933-1.444-2.882" fill="#f5a9a9" fill-rule="evenodd" stroke="#000" stroke-miterlimit="9.82128" stroke-width=".405"/>
<path d="m280.205,269.521c3.287-3.059 9.918-6.223 12.998-1.441-4.221,1.197-8.532,1.678-12.998,1.441" fill="none" stroke="#000" stroke-linecap="square" stroke-miterlimit="9.82128" stroke-width=".405"/>
<path d="m275.873,263.756c.711-4.133 12.977-7.914 14.441-2.883 1.941,6.678-13.111,4.225-14.441,2.883" fill="none" stroke="#000" stroke-linecap="square" stroke-miterlimit="9.82128" stroke-width=".405"/>
<path d="m307.646,103.789c-.074-11.354 11.523-14.257 12.996-2.883-2.266-1.102-4.084-.633-5.777-1.44-.932,4.81-2.109,4.152-5.775,7.205 .247-1.574-.397-1.933-1.444-2.882" fill="none" stroke="#000" stroke-linecap="square" stroke-miterlimit="9.82128" stroke-width=".405"/>
<path d="m309.089,106.67c1.4-2.192 1.873-4.609 1.443-7.205" fill="none" stroke="#000" stroke-linecap="square" stroke-miterlimit="9.82128" stroke-width=".405"/>
<path d="m303.312,81.169c-7.818,1.183-16.461-9.823-8.666-12.969 7.545-3.044 17.49,8.866 8.666,12.969m-5.777-4.323c.197-3.057-.502-4.838 1.443-7.206 .693,3.14-.943,4.898-1.443,7.206m34.662,11.529c-4.904-12.153 7.139-10.087 14.441-10.087 7.369,0-2.638,14.575-14.441,10.087m7.219-2.883c.588-3.017-1.111-4.572 1.445-5.763 .678,2.785-1.067,3.819-1.445,5.763" fill="#ffbf00" fill-rule="evenodd" stroke="#000" stroke-miterlimit="9.82128" stroke-width=".405"/>
<path d="m303.312,81.169c-7.818,1.183-16.461-9.823-8.666-12.969 7.545-3.044 17.49,8.866 8.666,12.969" fill="none" stroke="#000" stroke-linecap="square" stroke-miterlimit="9.82128" stroke-width=".405"/>
<path d="m297.535,76.846c.197-3.057-.502-4.838 1.443-7.206 .693,3.14-.943,4.898-1.443,7.206" fill="none" stroke="#000" stroke-linecap="square" stroke-miterlimit="9.82128" stroke-width=".405"/>
<path d="m332.197,88.375c-4.904-12.153 7.139-10.087 14.441-10.087 7.369,0-2.638,14.575-14.441,10.087" fill="none" stroke="#000" stroke-linecap="square" stroke-miterlimit="9.82128" stroke-width=".405"/>
<path d="m339.416,85.492c.588-3.017-1.111-4.572 1.445-5.763 .678,2.785-1.067,3.819-1.445,5.763" fill="none" stroke="#000" stroke-linecap="square" stroke-miterlimit="9.82128" stroke-width=".405"/>
<path d="m104.013,389.137c-20.697-30.977-49.927-54.453-65.578-89.594-13.175-29.584-23.795-69.5-14.548-101.812 9.784-34.188 30.214-74.328 67.129-85.296 31.722-9.426 71.935-4.126 89.54,25.942 .966-10.968-24.249-46.42-23.83-46.838 12.695-12.673 32.558,4.755 45.492,7.927-1-5.271-4.453-9.584-8.665-12.973l1.445-1.439c7.38,4.97 21.14,18.894 28.884,20.175-1.533-2.154-2.539-6.703-4.334-8.646 14.563,3.517 26.057,23.419 38.992,31.705 5.58,3.575 13.557,3.731 18.775,7.206 6.988,4.651 5.777,4.647 5.777,14.413l1.445-1.443c4.297,4.72 10.992,7.1 12.996,14.413l1.443-1.44c-2.57,3.951-3.525,8.28-2.887,12.969 1.826,1.057 1.705-1.161 2.887-1.441v4.325c2.164-4.041 4.443-4.438 7.223-7.206-.389,7.578 9.787,13.191 14.441,12.969-.322,10.347 17.023,15.244 21.662,24.5v-2.881c8.779,3.038 8.93,10.895 7.223,18.735-.662-1.855-1.91-2.801-2.889-4.324 1.652,7.395-2.553,19.559-10.109,25.939 1.063-1.861 1.885-3.867 2.887-5.762-6.842,7.744-15.408,14.148-25.994,14.41l1.443-1.441c-16.59,5.941-30.449-5.877-41.158-16.572-10.383-10.369-22.277-9.141-14.443,6.484 10.262,20.467 28.504,49.35 44.771,65.572 5.846,5.83 11.742,13.154 18.051,19.457 4.473,4.467 15.031,19.725 0,12.971h2.891c-6.492-1.002-10.611-5.055-14.443-4.324-2.906-1.713-7.533-1.363-10.109-7.205-14.162,7-52.912-50.941-63.545-60.529-19.793-17.854-45.696-42.902-15.939-65.173 5.971-4.469 24.588-37.176 18.105-43.635-8.119-8.09-19.406,7.293-25.273,15.132-4.248,5.678-20.735,36.586-27.44,31.705-5.294-3.853.902-41.574-4.332-50.441 0,27.479-8.84,46.437-15.887,72.06l-1.443-2.883c-4.276,8.953-8.999,16.02-17.33,21.617l1.443-2.883c-8.159,13.217-42.531,20.773-38.993,36.029 2.184,9.414 20.659,17.832 26.718,25.221 8.919,10.877 17.162,21.258 29.605,28.102-4.968-1.109-10.023-1.896-14.44,0l1.443,1.441c-4.251,1.703-12.979.004-12.997,0-3.1,2.074-3.914.293-5.776,4.322-18.988-12.41-55.826-24.469-64.268-49.719-6.073-18.168 7.05-23.428 14.441-38.191 4.296-8.58-2.985-13.492-3.61-15.852-1.783-6.742-2.148-14.305 0-21.617-13.824,12.82-20.617-12.05-27.438-4.324-6.781,7.682 2.343,51.064 4.332,61.971 5.025,15.295 17.957,39.473 28.883,57.646l1.443-2.883c9.4,15.207 24.34,25.725 36.827,38.189 6.713,6.701 33.718,19.457 43.325,19.457 19.324,0 38.836,4.426 56.325-7.207 4.551-3.027 40.754-18.236 29.605,0l1.445-1.441c2.934,20.422-40.883,29.824-56.323,33.146-34.094,7.337-64.867-5.489-95.316-18.735m257.067-102.323c-7.42-9.871-23.391-30.283-10.109-41.795 .451,2.061 3.363,5.621 4.332,8.648 3.141-5.613.535-12.127-.373-18.469-1.424-9.936 5.611-11.535 6.15-20.443 .607.385-.16,2.41 1.443,0 5.939,16.512 7.223,28.297 7.223,45.398 0,11.793 15.645,20.857 17.33,32.426-10.887-9.858-16.83,3.091-25.996-5.765m-85.207-237.789c-2.27-8.167-6.375-47.542 5.775-49.001 8.676-1.042 30.91,32.254 38.994,36.028-7.285.086-18.215,9.945-21.664,1.444 1.693.33 1.891,1.708 4.334,1.439-1.197-2.013-1.844-3.691-2.889-5.765 1.816,1.538 4.096,2.647 5.777,4.325-.322-5.224-18.666-29.153-27.441-30.265 0,12.827-4.248,27.521 2.889,38.911v-2.883c1.516,2.104 3.066,4.787 4.334,7.206-1.646-1.02-2.83-1.625-4.334-2.883l1.445,4.325c-1.703-2.324-2.836-2.583-4.334-5.765 .242,2.371-.33,4.849 0,7.206-1.451-1.293-1.761-2.834-2.886-4.322m76.543,60.526c-5.715-3.215-5.756-8.625-9.389-12.249-3.365-3.358-7.824-1.102-13.719-3.604l1.443,1.441c-4.557-1.86-6.23-5.712-4.332-10.087v2.883c.871-3.136 2.223-5.287 2.889-8.648l1.443,1.441c1.379-1.739 1.953-4.171 2.889-5.767l-1.443,1.444c-.143-5.372-.865-9.208-1.445-14.413l-1.443,1.442c-.063-5.777 1.191-11.14 4.332-15.854-5.197,2.485-9.895,10.621-10.111,11.53 .367,5.384.232,10.763-1.443,15.852l-1.443-1.439c-1.58,5.767-5.211,10.298-7.221,15.852l2.889-2.883c-2.684,6.804-8.719,8.961-8.664,17.296-8.455-9.334 2.752-19.925 7.941-30.266 6.672-13.292-1.541-22.036 12.998-31.705 10.975-7.3 27.367,5.111 35.383-2.882 5.424-5.408 16.072-10.9 23.107-14.412 3.174-1.584 15.57-12.962 17.33-12.971 19.578-.093-10.779,63.967-13.721,72.777-3.621,10.848-9.053,31.637-22.383,35.31-7.257,2.001-19.292-9.851-15.887-10.088m-1.446-27.382c-3.252,10.489-14.063,9.447-21.662,5.767 3.129-9.17 14.02-14.639 21.662-5.767m27.44-21.615c.537-2.208-.035-3.669 1.443-5.767-.957.794-2.137,1.893-2.887,2.883 1.023-3.235 1.365-6.649 2.887-10.09-1.803,2.016-4.08,3.664-5.775,5.767 1.051-2.066 1.684-4.888 2.889-7.206-1.465,2.119-3.176,3.797-4.332,5.765-1.271-15.737 21.039-27.823 33.215-33.147 1.141,14.406-4.023,34.972-17.328,41.795 .836-2.15.883-3.668 1.443-5.767-3.125,4.186-4.086,4.197-8.666,5.767 1.096-1.437 1.293-.906 1.443-2.883-1.284,1.435-2.7,1.927-4.332,2.883" fill="#666" fill-rule="evenodd" stroke="#000" stroke-miterlimit="9.82128" stroke-width=".405"/>
<path d="m104.013,389.137c-20.697-30.977-49.927-54.453-65.578-89.594-13.175-29.584-23.795-69.5-14.548-101.812 9.784-34.188 30.214-74.328 67.129-85.296 31.722-9.426 71.935-4.126 89.54,25.942 .966-10.968-24.249-46.42-23.83-46.838 12.695-12.673 32.558,4.755 45.492,7.927-1-5.271-4.453-9.584-8.665-12.973l1.445-1.439c7.38,4.97 21.14,18.894 28.884,20.175-1.533-2.154-2.539-6.703-4.334-8.646 14.563,3.517 26.057,23.419 38.992,31.705 5.58,3.575 13.557,3.731 18.775,7.206 6.988,4.651 5.777,4.647 5.777,14.413l1.445-1.443c4.297,4.72 10.992,7.1 12.996,14.413l1.443-1.44c-2.57,3.951-3.525,8.28-2.887,12.969 1.826,1.057 1.705-1.161 2.887-1.441v4.325c2.164-4.041 4.443-4.438 7.223-7.206-.389,7.578 9.787,13.191 14.441,12.969-.322,10.347 17.023,15.244 21.662,24.5v-2.881c8.779,3.038 8.93,10.895 7.223,18.735-.662-1.855-1.91-2.801-2.889-4.324 1.652,7.395-2.553,19.559-10.109,25.939 1.063-1.861 1.885-3.867 2.887-5.762-6.842,7.744-15.408,14.148-25.994,14.41l1.443-1.441c-16.59,5.941-30.449-5.877-41.158-16.572-10.383-10.369-22.277-9.141-14.443,6.484 10.262,20.467 28.504,49.35 44.771,65.572 5.846,5.83 11.742,13.154 18.051,19.457 4.473,4.467 15.031,19.725 0,12.971h2.891c-6.492-1.002-10.611-5.055-14.443-4.324-2.906-1.713-7.533-1.363-10.109-7.205-14.162,7-52.912-50.941-63.545-60.529-19.793-17.854-45.696-42.902-15.939-65.173 5.971-4.469 24.588-37.176 18.105-43.635-8.119-8.09-19.406,7.293-25.273,15.132-4.248,5.678-20.735,36.586-27.44,31.705-5.294-3.853.902-41.574-4.332-50.441 0,27.479-8.84,46.437-15.887,72.06l-1.443-2.883c-4.276,8.953-8.999,16.02-17.33,21.617l1.443-2.883c-8.159,13.217-42.531,20.773-38.993,36.029 2.184,9.414 20.659,17.832 26.718,25.221 8.919,10.877 17.162,21.258 29.605,28.102-4.968-1.109-10.023-1.896-14.44,0l1.443,1.441c-4.251,1.703-12.979.004-12.997,0-3.1,2.074-3.914.293-5.776,4.322-18.988-12.41-55.826-24.469-64.268-49.719-6.073-18.168 7.05-23.428 14.441-38.191 4.296-8.58-2.985-13.492-3.61-15.852-1.783-6.742-2.148-14.305 0-21.617-13.824,12.82-20.617-12.05-27.438-4.324-6.781,7.682 2.343,51.064 4.332,61.971 5.025,15.295 17.957,39.473 28.883,57.646l1.443-2.883c9.4,15.207 24.34,25.725 36.827,38.189 6.713,6.701 33.718,19.457 43.325,19.457 19.324,0 38.836,4.426 56.325-7.207 4.551-3.027 40.754-18.236 29.605,0l1.445-1.441c2.934,20.422-40.883,29.824-56.323,33.146-34.094,7.337-64.867-5.489-95.316-18.735" fill="none" stroke="#000" stroke-linecap="square" stroke-miterlimit="9.82128" stroke-width=".405"/>
<path d="m361.08,286.814c-7.42-9.871-23.391-30.283-10.109-41.795 .451,2.061 3.363,5.621 4.332,8.648 3.141-5.613.535-12.127-.373-18.469-1.424-9.936 5.611-11.535 6.15-20.443 .607.385-.16,2.41 1.443,0 5.939,16.512 7.223,28.297 7.223,45.398 0,11.793 15.645,20.857 17.33,32.426-10.887-9.858-16.83,3.091-25.996-5.765" fill="none" stroke="#000" stroke-linecap="square" stroke-miterlimit="9.82128" stroke-width=".405"/>
<path d="m275.873,49.025c-2.27-8.167-6.375-47.542 5.775-49.001 8.676-1.042 30.91,32.254 38.994,36.028-7.285.086-18.215,9.945-21.664,1.444 1.693.33 1.891,1.708 4.334,1.439-1.197-2.013-1.844-3.691-2.889-5.765 1.816,1.538 4.096,2.647 5.777,4.325-.322-5.224-18.666-29.153-27.441-30.265 0,12.827-4.248,27.521 2.889,38.911v-2.883c1.516,2.104 3.066,4.787 4.334,7.206-1.646-1.02-2.83-1.625-4.334-2.883l1.445,4.325c-1.703-2.324-2.836-2.583-4.334-5.765 .242,2.371-.33,4.849 0,7.206-1.451-1.293-1.761-2.834-2.886-4.322" fill="none" stroke="#000" stroke-linecap="square" stroke-miterlimit="9.82128" stroke-width=".405"/>
<path d="m352.416,109.551c-5.715-3.215-5.756-8.625-9.389-12.249-3.365-3.358-7.824-1.102-13.719-3.604l1.443,1.441c-4.557-1.86-6.23-5.712-4.332-10.087v2.883c.871-3.136 2.223-5.287 2.889-8.648l1.443,1.441c1.379-1.739 1.953-4.171 2.889-5.767l-1.443,1.444c-.143-5.372-.865-9.208-1.445-14.413l-1.443,1.442c-.063-5.777 1.191-11.14 4.332-15.854-5.197,2.485-9.895,10.621-10.111,11.53 .367,5.384.232,10.763-1.443,15.852l-1.443-1.439c-1.58,5.767-5.211,10.298-7.221,15.852l2.889-2.883c-2.684,6.804-8.719,8.961-8.664,17.296-8.455-9.334 2.752-19.925 7.941-30.266 6.672-13.292-1.541-22.036 12.998-31.705 10.975-7.3 27.367,5.111 35.383-2.882 5.424-5.408 16.072-10.9 23.107-14.412 3.174-1.584 15.57-12.962 17.33-12.971 19.578-.093-10.779,63.967-13.721,72.777-3.621,10.848-9.053,31.637-22.383,35.31-7.257,2.001-19.292-9.851-15.887-10.088" fill="none" stroke="#000" stroke-linecap="square" stroke-miterlimit="9.82128" stroke-width=".405"/>
<path d="m350.97,82.169c-3.252,10.489-14.063,9.447-21.662,5.767 3.129-9.17 14.02-14.639 21.662-5.767" fill="none" stroke="#000" stroke-linecap="square" stroke-miterlimit="9.82128" stroke-width=".405"/>
<path d="m378.41,60.554c.537-2.208-.035-3.669 1.443-5.767-.957.794-2.137,1.893-2.887,2.883 1.023-3.235 1.365-6.649 2.887-10.09-1.803,2.016-4.08,3.664-5.775,5.767 1.051-2.066 1.684-4.888 2.889-7.206-1.465,2.119-3.176,3.797-4.332,5.765-1.271-15.737 21.039-27.823 33.215-33.147 1.141,14.406-4.023,34.972-17.328,41.795 .836-2.15.883-3.668 1.443-5.767-3.125,4.186-4.086,4.197-8.666,5.767 1.096-1.437 1.293-.906 1.443-2.883-1.284,1.435-2.7,1.927-4.332,2.883" fill="none" stroke="#000" stroke-linecap="square" stroke-miterlimit="9.82128" stroke-width=".405"/>
<path d="m164.669,363.195c-3.574-7.783-9.653-12.668-16.607-17.293-5.268-3.502-20.823-8.824-7.943-11.529 .018.004 8.746,1.703 12.997,0l-1.443-1.441c15.106-6.758 43.845,16.352 50.546,30.264-12.167-6.63-29.161,19.095-37.55-.001m142.977,0c6.59-11.932-8.697-25.297-14.443-34.586 6.186-.91 9.859,4.285 14.443,4.322 4.078,2.895 9.93,6.064 17.33,7.207h-2.891c5.932,2.666 9.695.701 8.666-5.766 13.928,4.447 17.998,20.957 7.943,30.984-9.116,9.093-23.327-4.52-31.048-2.161m-30.33-102.322c2.182-12.307 22.211-5.705 15.887,5.766-2.186-.545-6.256-1.137-10.109-1.443 4.131-.508 4.648-2.668 7.221-4.322-4.103-1.89-8.911-2.077-12.999-.001m82.318,49c11.422,6.455 4.656-17.254 1.445-23.059 8.74,8.443 15.104-2.902 25.996,5.766v-2.883c28.034,21.141-19.148,43.198-27.441,20.176m-76.541-172.94c6.563.428 15.43-6.211 20.941-.72 4.029,4.014 19.549-6.917 25.273-6.485-2.066-.2-22.518-5.065-23.107-5.765-4.752-5.627-3.172-11.445 4.332-11.529-4.293-1.356-10.895-9.116-7.221-15.853 1.508,2.113 4.139,6.667 5.777,10.088 4.465-3.056 6.537-4.926 11.553-5.765-.578-4.471-3.82-7.451-8.664-8.646 2.275-1.831 2.18-3.257 4.332-5.767l-2.889,2.883c2.633-5.253 5.361-10.285 7.221-15.852l1.443,1.439c1.676-5.089 1.811-10.468 1.443-15.852 .217-.909 4.914-9.045 10.111-11.53-3.141,4.714-4.395,10.077-4.332,15.854l1.443-1.442c.58,5.205 1.303,9.041 1.445,14.413l1.443-1.444c-.936,1.595-1.51,4.028-2.889,5.767l-1.443-1.441c-.666,3.361-2.018,5.512-2.889,8.648v-2.883c-1.898,4.375-.225,8.228 4.332,10.087l-1.443-1.441c5.895,2.501 10.354.246 13.719,3.604 3.633,3.624 3.674,9.034 9.389,12.249h-2.889c14.148,7.968 13.217,15.72 28.883,1.443-9.871,12.066.242,33.55 4.332,46.116-.809-1.985-2.076-3.782-2.889-5.765 .094,5.069.547,9.554 1.445,14.413l-1.445-2.883c1.225,3.23 1.74,6.798 2.889,10.088-.939-.981-1.928-1.92-2.889-2.881 .682,3.778.523,7.807 1.445,11.529l-1.445-2.883c1.273,9.799-6.221,26.863-12.996,28.823-2.16,3.76-5.563,7.109-5.777,7.205-1.229,5.543-6.076,11.639-8.664,11.529-2.127,4.127-4.475,7.873-7.221,11.529v-2.881l-2.891,2.881c2.236-8.699 6.018-10.041 4.334-18.734 1.061,1.904 2.205,2.254 2.889,4.324 1.662-7.635 1.496-16.045-7.223-18.735v2.881c-4.574-9.13-21.973-14.474-21.662-24.5-4.654.222-14.83-5.391-14.441-12.969-2.779,2.768-5.059,3.166-7.223,7.206v-4.325c-1.182.28-1.061,2.499-2.887,1.441-.639-4.689.316-9.018 2.887-12.969l-1.443,1.44c-1.832-6.687-10.396-13.667-14.441-12.969 .002-4.322.002-8.647.002-12.971" fill="#ffffeb" fill-rule="evenodd" stroke="#000" stroke-miterlimit="9.82128" stroke-width=".405"/>
<path d="m164.669,363.195c-3.574-7.783-9.653-12.668-16.607-17.293-5.268-3.502-20.823-8.824-7.943-11.529 .018.004 8.746,1.703 12.997,0l-1.443-1.441c15.106-6.758 43.845,16.352 50.546,30.264-12.167-6.63-29.161,19.095-37.55-.001" fill="none" stroke="#000" stroke-linecap="square" stroke-miterlimit="9.82128" stroke-width=".405"/>
<path d="m307.646,363.195c6.59-11.932-8.697-25.297-14.443-34.586 6.186-.91 9.859,4.285 14.443,4.322 4.078,2.895 9.93,6.064 17.33,7.207h-2.891c5.932,2.666 9.695.701 8.666-5.766 13.928,4.447 17.998,20.957 7.943,30.984-9.116,9.093-23.327-4.52-31.048-2.161" fill="none" stroke="#000" stroke-linecap="square" stroke-miterlimit="9.82128" stroke-width=".405"/>
<path d="m277.316,260.873c2.182-12.307 22.211-5.705 15.887,5.766-2.186-.545-6.256-1.137-10.109-1.443 4.131-.508 4.648-2.668 7.221-4.322-4.103-1.89-8.911-2.077-12.999-.001" fill="none" stroke="#000" stroke-linecap="square" stroke-miterlimit="9.82128" stroke-width=".405"/>
<path d="m359.634,309.873c11.422,6.455 4.656-17.254 1.445-23.059 8.74,8.443 15.104-2.902 25.996,5.766v-2.883c28.034,21.141-19.148,43.198-27.441,20.176" fill="none" stroke="#000" stroke-linecap="square" stroke-miterlimit="9.82128" stroke-width=".405"/>
<path d="m283.093,136.933c6.563.428 15.43-6.211 20.941-.72 4.029,4.014 19.549-6.917 25.273-6.485-2.066-.2-22.518-5.065-23.107-5.765-4.752-5.627-3.172-11.445 4.332-11.529-4.293-1.356-10.895-9.116-7.221-15.853 1.508,2.113 4.139,6.667 5.777,10.088 4.465-3.056 6.537-4.926 11.553-5.765-.578-4.471-3.82-7.451-8.664-8.646 2.275-1.831 2.18-3.257 4.332-5.767l-2.889,2.883c2.633-5.253 5.361-10.285 7.221-15.852l1.443,1.439c1.676-5.089 1.811-10.468 1.443-15.852 .217-.909 4.914-9.045 10.111-11.53-3.141,4.714-4.395,10.077-4.332,15.854l1.443-1.442c.58,5.205 1.303,9.041 1.445,14.413l1.443-1.444c-.936,1.595-1.51,4.028-2.889,5.767l-1.443-1.441c-.666,3.361-2.018,5.512-2.889,8.648v-2.883c-1.898,4.375-.225,8.228 4.332,10.087l-1.443-1.441c5.895,2.501 10.354.246 13.719,3.604 3.633,3.624 3.674,9.034 9.389,12.249h-2.889c14.148,7.968 13.217,15.72 28.883,1.443-9.871,12.066.242,33.55 4.332,46.116-.809-1.985-2.076-3.782-2.889-5.765 .094,5.069.547,9.554 1.445,14.413l-1.445-2.883c1.225,3.23 1.74,6.798 2.889,10.088-.939-.981-1.928-1.92-2.889-2.881 .682,3.778.523,7.807 1.445,11.529l-1.445-2.883c1.273,9.799-6.221,26.863-12.996,28.823-2.16,3.76-5.563,7.109-5.777,7.205-1.229,5.543-6.076,11.639-8.664,11.529-2.127,4.127-4.475,7.873-7.221,11.529v-2.881l-2.891,2.881c2.236-8.699 6.018-10.041 4.334-18.734 1.061,1.904 2.205,2.254 2.889,4.324 1.662-7.635 1.496-16.045-7.223-18.735v2.881c-4.574-9.13-21.973-14.474-21.662-24.5-4.654.222-14.83-5.391-14.441-12.969-2.779,2.768-5.059,3.166-7.223,7.206v-4.325c-1.182.28-1.061,2.499-2.887,1.441-.639-4.689.316-9.018 2.887-12.969l-1.443,1.44c-1.832-6.687-10.396-13.667-14.441-12.969 .002-4.322.002-8.647.002-12.971" fill="none" stroke="#000" stroke-linecap="square" stroke-miterlimit="9.82128" stroke-width=".405"/>
</svg>
